<mxfile host="app.diagrams.net" modified="2024-01-03T17:12:49.561Z" agent="Mozilla/5.0 (Windows NT 10.0; Win64; x64) AppleWebKit/537.36 (KHTML, like Gecko) Chrome/120.0.0.0 Safari/537.36" etag="Wzf7l_eAWPtZxZkXUeaK" version="22.1.16" type="github" pages="2">
  <diagram id="07fea595-8f29-1299-0266-81d95cde20df" name="Page-1">
    <mxGraphModel dx="705" dy="-1534" grid="1" gridSize="10" guides="1" tooltips="1" connect="1" arrows="1" fold="1" page="1" pageScale="1" pageWidth="1169" pageHeight="827" background="none" math="0" shadow="0">
      <root>
        <mxCell id="0" />
        <mxCell id="1" parent="0" />
        <mxCell id="644" value="&lt;font style=&quot;font-size: 30px&quot; color=&quot;#ffffff&quot;&gt;&lt;b&gt;&lt;span&gt;FOOD CHAIN&lt;/span&gt;&lt;br&gt;&lt;span&gt;CYCLE&lt;/span&gt;&lt;/b&gt;&lt;/font&gt;&lt;br&gt;" style="shape=hexagon;perimeter=hexagonPerimeter2;whiteSpace=wrap;html=1;shadow=0;labelBackgroundColor=none;strokeColor=#23445D;fillColor=#23445D;gradientColor=none;fontFamily=Helvetica;fontSize=23;fontColor=#23445d;align=center;strokeWidth=3;" parent="1" vertex="1">
          <mxGeometry x="428.57894736842115" y="2764.7982456140344" width="311.84210526315786" height="259.86842105263156" as="geometry" />
        </mxCell>
        <mxCell id="645" value="" style="triangle;whiteSpace=wrap;html=1;shadow=0;labelBackgroundColor=none;strokeColor=none;fillColor=#FFFFFF;fontFamily=Helvetica;fontSize=17;fontColor=#23445d;align=center;rotation=90;gradientColor=none;flipV=1;flipH=1;opacity=20;" parent="1" vertex="1">
          <mxGeometry x="309.5" y="2782.6666666666665" width="72" height="152" as="geometry" />
        </mxCell>
        <mxCell id="646" value="&lt;font style=&quot;font-size: 23px&quot;&gt;CLIMATE&lt;/font&gt;" style="shape=hexagon;perimeter=hexagonPerimeter2;whiteSpace=wrap;html=1;shadow=0;labelBackgroundColor=none;strokeColor=#23445D;fillColor=#ffffff;gradientColor=none;fontFamily=Helvetica;fontSize=23;fontColor=#23445D;align=center;strokeWidth=3;movable=1;resizable=1;rotatable=1;deletable=1;editable=1;locked=0;connectable=1;" parent="1" vertex="1">
          <mxGeometry x="428.57894736842115" y="2504.6666666666665" width="311.84210526315786" height="259.86842105263156" as="geometry" />
        </mxCell>
        <mxCell id="647" value="&lt;font style=&quot;font-size: 23px&quot;&gt;PRODUCERS&lt;/font&gt;" style="shape=hexagon;perimeter=hexagonPerimeter2;whiteSpace=wrap;html=1;shadow=0;labelBackgroundColor=none;strokeColor=#23445D;fillColor=#FFFFFF;gradientColor=none;fontFamily=Helvetica;fontSize=23;fontColor=#23445d;align=center;strokeWidth=3;" parent="1" vertex="1">
          <mxGeometry x="662.6578947368422" y="2634.1995614035086" width="311.84210526315786" height="259.86842105263156" as="geometry" />
        </mxCell>
        <mxCell id="648" value="&lt;font style=&quot;font-size: 23px&quot;&gt;OMNIVORE&lt;/font&gt;" style="shape=hexagon;perimeter=hexagonPerimeter2;whiteSpace=wrap;html=1;shadow=0;labelBackgroundColor=none;strokeColor=#23445D;fillColor=#FFFFFF;gradientColor=none;fontFamily=Helvetica;fontSize=23;fontColor=#23445d;align=center;strokeWidth=3;" parent="1" vertex="1">
          <mxGeometry x="662.6578947368422" y="2894.2653508771928" width="311.84210526315786" height="259.86842105263156" as="geometry" />
        </mxCell>
        <mxCell id="649" value="&lt;font style=&quot;font-size: 23px&quot;&gt;HERBIVORE&lt;/font&gt;" style="shape=hexagon;perimeter=hexagonPerimeter2;whiteSpace=wrap;html=1;shadow=0;labelBackgroundColor=none;strokeColor=#23445D;fillColor=#FFFFFF;gradientColor=none;fontFamily=Helvetica;fontSize=23;fontColor=#23445d;align=center;strokeWidth=3;" parent="1" vertex="1">
          <mxGeometry x="428.57894736842115" y="3024.7982456140344" width="311.84210526315786" height="259.86842105263156" as="geometry" />
        </mxCell>
        <mxCell id="650" value="&lt;font style=&quot;font-size: 23px&quot;&gt;CARNIVORE&lt;/font&gt;" style="shape=hexagon;perimeter=hexagonPerimeter2;whiteSpace=wrap;html=1;shadow=0;labelBackgroundColor=none;strokeColor=#23445D;fillColor=#FFFFFF;gradientColor=none;fontFamily=Helvetica;fontSize=23;fontColor=#23445d;align=center;strokeWidth=3;" parent="1" vertex="1">
          <mxGeometry x="194.5" y="2894.2653508771928" width="311.84210526315786" height="259.86842105263156" as="geometry" />
        </mxCell>
        <mxCell id="651" value="&lt;font style=&quot;font-size: 23px;&quot;&gt;DECOMPOSERS&lt;/font&gt;" style="shape=hexagon;perimeter=hexagonPerimeter2;whiteSpace=wrap;html=1;shadow=0;labelBackgroundColor=none;strokeColor=#23445D;fillColor=#ffffff;gradientColor=none;fontFamily=Helvetica;fontSize=23;fontColor=#23445D;align=center;strokeWidth=3;" parent="1" vertex="1">
          <mxGeometry x="194.5000000000001" y="2634.1995614035086" width="311.84210526315786" height="259.86842105263156" as="geometry" />
        </mxCell>
        <mxCell id="652" value="" style="triangle;whiteSpace=wrap;html=1;shadow=0;labelBackgroundColor=none;strokeColor=none;fillColor=#23445D;fontFamily=Helvetica;fontSize=17;fontColor=#23445d;align=center;rotation=31;gradientColor=none;strokeWidth=3;" parent="1" vertex="1">
          <mxGeometry x="700" y="2668.6666666666665" width="35" height="73" as="geometry" />
        </mxCell>
        <mxCell id="653" value="" style="triangle;whiteSpace=wrap;html=1;shadow=0;labelBackgroundColor=none;strokeColor=none;fillColor=#23445D;fontFamily=Helvetica;fontSize=17;fontColor=#23445d;align=center;rotation=31;gradientColor=none;flipH=1;strokeWidth=3;" parent="1" vertex="1">
          <mxGeometry x="434.5" y="3044.666666666666" width="35" height="73" as="geometry" />
        </mxCell>
        <mxCell id="654" value="" style="triangle;whiteSpace=wrap;html=1;shadow=0;labelBackgroundColor=none;strokeColor=none;fillColor=#23445D;fontFamily=Helvetica;fontSize=17;fontColor=#23445d;align=center;rotation=329;gradientColor=none;strokeWidth=3;" parent="1" vertex="1">
          <mxGeometry x="464.5" y="2653.6666666666665" width="35" height="73" as="geometry" />
        </mxCell>
        <mxCell id="655" value="" style="triangle;whiteSpace=wrap;html=1;shadow=0;labelBackgroundColor=none;strokeColor=none;fillColor=#23445D;fontFamily=Helvetica;fontSize=17;fontColor=#23445d;align=center;rotation=329;gradientColor=none;flipH=1;strokeWidth=3;" parent="1" vertex="1">
          <mxGeometry x="667.5" y="3059.666666666666" width="35" height="73" as="geometry" />
        </mxCell>
        <mxCell id="656" value="" style="triangle;whiteSpace=wrap;html=1;shadow=0;labelBackgroundColor=none;strokeColor=none;fillColor=#23445D;fontFamily=Helvetica;fontSize=17;fontColor=#23445d;align=center;rotation=90;gradientColor=none;strokeWidth=3;" parent="1" vertex="1">
          <mxGeometry x="801.078947368421" y="2874.1666666666665" width="35" height="73" as="geometry" />
        </mxCell>
        <mxCell id="657" value="" style="triangle;whiteSpace=wrap;html=1;shadow=0;labelBackgroundColor=none;strokeColor=none;fillColor=#23445D;fontFamily=Helvetica;fontSize=17;fontColor=#23445d;align=center;rotation=90;gradientColor=none;flipH=1;strokeWidth=3;" parent="1" vertex="1">
          <mxGeometry x="332.92105263157896" y="2840.1666666666665" width="35" height="73" as="geometry" />
        </mxCell>
        <mxCell id="fI0yMT-QSvvCQdl_icK9-657" value="" style="rhombus;whiteSpace=wrap;html=1;sketch=1;hachureGap=4;jiggle=2;curveFitting=1;fontFamily=Architects Daughter;fontSource=https%3A%2F%2Ffonts.googleapis.com%2Fcss%3Ffamily%3DArchitects%2BDaughter;fontSize=20;" vertex="1" parent="1">
          <mxGeometry x="770" y="3220" width="80" height="80" as="geometry" />
        </mxCell>
      </root>
    </mxGraphModel>
  </diagram>
  <diagram id="wpPPvKVc7L52WwyfjHA8" name="Page-2">
    <mxGraphModel dx="1157" dy="1622" grid="1" gridSize="10" guides="1" tooltips="1" connect="1" arrows="1" fold="1" page="1" pageScale="1" pageWidth="850" pageHeight="1100" math="0" shadow="0">
      <root>
        <mxCell id="0" />
        <mxCell id="1" parent="0" />
        <mxCell id="BdmiXSBwHwPu_yjrisNN-3" value="&lt;div style=&quot;&quot;&gt;&lt;span style=&quot;font-family: &amp;quot;Times New Roman&amp;quot;; background-color: initial;&quot;&gt;&lt;b style=&quot;&quot;&gt;&lt;font style=&quot;font-size: 19px;&quot;&gt;DATA PREPROCESSING&lt;/font&gt;&lt;/b&gt;&lt;/span&gt;&lt;/div&gt;" style="ellipse;whiteSpace=wrap;html=1;aspect=fixed;hachureGap=4;fontFamily=Architects Daughter;fontSource=https%3A%2F%2Ffonts.googleapis.com%2Fcss%3Ffamily%3DArchitects%2BDaughter;fontSize=20;movable=1;resizable=1;rotatable=1;deletable=1;editable=1;locked=0;connectable=1;fillColor=#dae8fc;strokeColor=#6c8ebf;strokeWidth=2;align=center;" vertex="1" parent="1">
          <mxGeometry x="310" y="180" width="300" height="300" as="geometry" />
        </mxCell>
        <mxCell id="BdmiXSBwHwPu_yjrisNN-1" value="" style="ellipse;whiteSpace=wrap;html=1;aspect=fixed;hachureGap=4;fontFamily=Architects Daughter;fontSource=https%3A%2F%2Ffonts.googleapis.com%2Fcss%3Ffamily%3DArchitects%2BDaughter;fontSize=20;movable=1;resizable=1;rotatable=1;deletable=1;editable=1;locked=0;connectable=1;strokeWidth=2;" vertex="1" parent="1">
          <mxGeometry x="130" y="255" width="90" height="90" as="geometry" />
        </mxCell>
        <mxCell id="KUw2WqzDhQLEqjvUieu0-14" value="" style="rhombus;whiteSpace=wrap;html=1;sketch=1;hachureGap=4;jiggle=2;curveFitting=1;fontFamily=Architects Daughter;fontSource=https%3A%2F%2Ffonts.googleapis.com%2Fcss%3Ffamily%3DArchitects%2BDaughter;fontSize=20;" vertex="1" parent="1">
          <mxGeometry x="170" y="-70" width="80" height="80" as="geometry" />
        </mxCell>
        <mxCell id="KUw2WqzDhQLEqjvUieu0-15" value="" style="rhombus;whiteSpace=wrap;html=1;sketch=1;hachureGap=4;jiggle=2;curveFitting=1;fontFamily=Architects Daughter;fontSource=https%3A%2F%2Ffonts.googleapis.com%2Fcss%3Ffamily%3DArchitects%2BDaughter;fontSize=20;" vertex="1" parent="1">
          <mxGeometry x="210" y="-110" width="80" height="80" as="geometry" />
        </mxCell>
        <mxCell id="KUw2WqzDhQLEqjvUieu0-16" value="" style="rhombus;whiteSpace=wrap;html=1;sketch=1;hachureGap=4;jiggle=2;curveFitting=1;fontFamily=Architects Daughter;fontSource=https%3A%2F%2Ffonts.googleapis.com%2Fcss%3Ffamily%3DArchitects%2BDaughter;fontSize=20;" vertex="1" parent="1">
          <mxGeometry x="130" y="-30" width="80" height="80" as="geometry" />
        </mxCell>
        <mxCell id="KUw2WqzDhQLEqjvUieu0-17" value="" style="rhombus;whiteSpace=wrap;html=1;sketch=1;hachureGap=4;jiggle=2;curveFitting=1;fontFamily=Architects Daughter;fontSource=https%3A%2F%2Ffonts.googleapis.com%2Fcss%3Ffamily%3DArchitects%2BDaughter;fontSize=20;" vertex="1" parent="1">
          <mxGeometry x="130" y="-110" width="80" height="80" as="geometry" />
        </mxCell>
        <mxCell id="KUw2WqzDhQLEqjvUieu0-18" value="" style="rhombus;whiteSpace=wrap;html=1;sketch=1;hachureGap=4;jiggle=2;curveFitting=1;fontFamily=Architects Daughter;fontSource=https%3A%2F%2Ffonts.googleapis.com%2Fcss%3Ffamily%3DArchitects%2BDaughter;fontSize=20;" vertex="1" parent="1">
          <mxGeometry x="210" y="-30" width="80" height="80" as="geometry" />
        </mxCell>
        <mxCell id="c9sTXRJXi-cfG8xOfIcn-1" value="" style="ellipse;whiteSpace=wrap;html=1;aspect=fixed;hachureGap=4;fontFamily=Architects Daughter;fontSource=https%3A%2F%2Ffonts.googleapis.com%2Fcss%3Ffamily%3DArchitects%2BDaughter;fontSize=20;movable=1;resizable=1;rotatable=1;deletable=1;editable=1;locked=0;connectable=1;strokeWidth=2;" vertex="1" parent="1">
          <mxGeometry x="410" y="410" width="100" height="100" as="geometry" />
        </mxCell>
        <mxCell id="c9sTXRJXi-cfG8xOfIcn-2" value="" style="ellipse;whiteSpace=wrap;html=1;aspect=fixed;hachureGap=4;fontFamily=Architects Daughter;fontSource=https%3A%2F%2Ffonts.googleapis.com%2Fcss%3Ffamily%3DArchitects%2BDaughter;fontSize=20;movable=1;resizable=1;rotatable=1;deletable=1;editable=1;locked=0;connectable=1;strokeWidth=2;" vertex="1" parent="1">
          <mxGeometry x="580" y="270" width="100" height="100" as="geometry" />
        </mxCell>
        <mxCell id="BdmiXSBwHwPu_yjrisNN-4" value="" style="ellipse;whiteSpace=wrap;html=1;aspect=fixed;hachureGap=4;fontFamily=Architects Daughter;fontSource=https%3A%2F%2Ffonts.googleapis.com%2Fcss%3Ffamily%3DArchitects%2BDaughter;fontSize=20;movable=1;resizable=1;rotatable=1;deletable=1;editable=1;locked=0;connectable=1;strokeWidth=2;" vertex="1" parent="1">
          <mxGeometry x="410" y="130" width="110" height="110" as="geometry" />
        </mxCell>
      </root>
    </mxGraphModel>
  </diagram>
</mxfile>
